Format : AVI
Format/Info : Audio Video Interleave
File size : 674 MiB
Duration : 1h 32mn
Overall bit rate : 1 019 Kbps
Writing application : VirtualDubMod 1.5.10.3 | www.virtualdub-fr.org || (build 2550/release)
Writing library : VirtualDubMod build 2550/release

Video
ID : 0
Format : MPEG-4 Visual
Format profile : AdvancedSimple@L5
Format settings, BVOP : Yes
Format settings, QPel : No
Format settings, GMC : No warppoints
Format settings, Matrix : Default (H.263)
Muxing mode : Packed bitstream
Codec ID : XVID
Codec ID/Hint : XviD
Duration : 1h 32mn
Bit rate : 882 Kbps
Width : 640 pixels
Height : 272 pixels
Display aspect ratio : 16:9
Frame rate : 25.000 fps
Resolution : 24 bits
Colorimetry : 4:2:0
Scan type : Progressive
Bits/(Pixel*Frame) : 0.203
Stream size : 583 MiB (86%)
Writing library : XviD 1.1.2 (UTC 2006-11-01)

Audio
ID : 1
Format : MPEG Audio
Format version : Version 1
Format profile : Layer 3
Codec ID : 55
Codec ID/Hint : MP3
Duration : 1h 32mn
Bit rate mode : Constant
Bit rate : 128 Kbps
Channel(s) : 2 channels
Sampling rate : 44.1 KHz
Resolution : 16 bits
Stream size : 84.6 MiB (13%)
Alignment : Split accross interleaves
Interleave, duration : 40 ms (1.00 video frame)
Interleave, preload duration : 500 ms

Starring
Denzel Washington
Chris Pine
Rosario Dawson
Ethan Suplee
Jessy Schram

After panning across some idling diesel locomotives under the opening credits, the film begins with scenes at two rail yards in different regions of Pennsylvania run by the Allegheny and West Virginia Railroad (AWVR). In the Fuller yard in northern Pennsylvania, children arrive for a school field trip on rail safety. Meanwhile, in the southern Pennsylvania town of Stanton, Will Colson (Chris Pine) gets up for work, stopping to surreptitiously watch his wife put their son on the school bus. He calls her but she refuses to even answer.
 
http://www.imdb.com/title/tt0477080/

Thanks to LU for original file

screens
 
http://img210.imageshack.us/img210/5066/unstopxvidviceavisnapsh.jpg 
http://img225.imageshack.us/img225/5066/unstopxvidviceavisnapsh.jpg 
http://img708.imageshack.us/img708/5066/unstopxvidviceavisnapsh.jpg 
http://img687.imageshack.us/img687/5066/unstopxvidviceavisnapsh.jpg